<svg xmlns="http://www.w3.org/2000/svg" viewBox="0 0 100 100" width="512" height="512">
  <!-- Background circle -->
  <rect width="100" height="100" rx="22" fill="#0f172a"/>
  <!-- T-Roof (top beam) -->
  <path d="M 8 38 L 8 28 L 50 12 L 92 28 L 92 38 L 72 38 L 72 70 L 50 48 L 28 70 L 28 38 Z" fill="url(#grad)"/>
  <!-- W-Legs -->
  <path d="M 13 42 L 22 42 L 22 84 L 50 58 L 78 84 L 78 42 L 87 42 L 87 88 L 50 66 L 13 88 Z" fill="#334155"/>
  <!-- Scaffold bracing left -->
  <path d="M 14 52 L 21 64 M 21 52 L 14 64" stroke="#475569" stroke-width="1.8" stroke-linecap="round"/>
  <path d="M 14 64 L 21 78 M 21 64 L 14 78" stroke="#475569" stroke-width="1.8" stroke-linecap="round"/>
  <!-- Scaffold bracing right -->
  <path d="M 79 52 L 86 64 M 86 52 L 79 64" stroke="#475569" stroke-width="1.8" stroke-linecap="round"/>
  <path d="M 79 64 L 86 78 M 86 64 L 79 78" stroke="#475569" stroke-width="1.8" stroke-linecap="round"/>
  <defs>
    <linearGradient id="grad" x1="0%" y1="0%" x2="100%" y2="100%">
      <stop offset="0%" style="stop-color:#60a5fa"/>
      <stop offset="100%" style="stop-color:#818cf8"/>
    </linearGradient>
  </defs>
</svg>
