<svg xmlns="http://www.w3.org/2000/svg" width="1664" height="334" viewBox="0 0 1664 334" fill="none"><path d="M75.7707 4.021H0V329.976H75.7707V4.021Z" fill="#0C2336"></path><path d="M221.871 34.5965C201.992 14.2027 177.899 4.02148 149.78 4.02148H96.9385V64.6059H126.819C142.137 64.6059 154.089 68.7538 162.676 76.9239C170.948 84.6855 175.037 95.0867 175.037 108.033C175.037 119.534 170.822 129.464 162.455 137.697C154.152 146.056 144.276 150.266 132.827 150.266H96.9385V209.657H149.937C177.993 209.657 201.961 199.538 221.839 179.459C241.812 159.379 251.783 135.34 251.783 107.405C251.783 79.4692 241.812 54.8018 221.839 34.5651" fill="#0C2336"></path><path d="M501.049 330.008H293.772V4.02148H370.613V264.679H501.049V330.008Z" fill="#0C2336"></path><path d="M603.147 4.02148H523.57L619.094 193.882V330.008H695.84V192.468L603.147 4.02148Z" fill="#0C2336"></path><path d="M1068.15 69.3194H987.034V330.008H910.539V69.3194H830.082V4.02148H1068.15V69.3194Z" fill="#0C2336"></path><path d="M1321.6 134.179H1218.47V196.869H1321.6V134.179Z" fill="#0C2336"></path><path d="M1355.85 4.021H1218.53V69.3189H1355.85V4.021Z" fill="#0C2336"></path><path d="M1197.3 4.021H1123.54V329.976H1197.3V4.021Z" fill="#0C2336"></path><path d="M1355.85 264.68H1218.53V330.009H1355.85V264.68Z" fill="#0C2336"></path><path d="M1664 215.753C1658.34 252.205 1646.07 280.266 1627.29 299.937C1605.5 322.656 1574.89 334 1535.42 334C1492.2 334 1456.47 318.791 1428.26 288.279C1400.14 257.735 1386.11 218.079 1386.11 169.372C1386.11 123.337 1399.16 83.9321 1425.4 51.3145C1452.76 17.1258 1487.52 0 1529.44 0C1571.37 0 1606.31 12.2866 1629.02 36.6712C1648.68 57.882 1660.51 88.0799 1664 127.234L1585.46 131.256C1585.46 112.056 1581.56 96.1558 1573.64 83.775C1564.26 69.0374 1550.55 61.7157 1532.49 61.7157C1509.75 61.7157 1493.74 71.1427 1484.56 89.9339C1476.44 106.463 1472.45 133.298 1472.45 170.661C1472.45 200.764 1476.85 224.583 1485.82 242.086C1496.04 262.669 1511.89 272.85 1533.12 272.85C1549.48 272.85 1563.04 266.848 1573.73 254.907C1584.39 242.998 1589.71 228.731 1589.71 212.234L1664 215.816V215.753Z" fill="#0C2336"></path><path d="M708.42 169.435L798.439 4.02148H720.939L670.739 96.6264L708.42 169.435Z" fill="#0C2336"></path></svg>